<?xml version="1.0" standalone="no"?>
<!DOCTYPE svg PUBLIC "-//W3C//DTD SVG 20010904//EN"
 "http://www.w3.org/TR/2001/REC-SVG-20010904/DTD/svg10.dtd">
<svg version="1.0" xmlns="http://www.w3.org/2000/svg"
 width="300.000000pt" height="300.000000pt" viewBox="0 0 300.000000 300.000000"
 preserveAspectRatio="xMidYMid meet">

<g transform="translate(0.000000,300.000000) scale(0.100000,-0.100000)"
fill="#000000" stroke="none">
<path d="M990 1872 c0 -5 21 -27 48 -49 58 -49 130 -146 155 -210 10 -26 23
-77 28 -113 5 -35 14 -67 19 -70 6 -3 -24 -12 -66 -19 -85 -14 -170 -41 -208
-66 -24 -16 -26 -16 -33 1 -10 28 -56 94 -107 154 -83 97 -271 220 -336 220
-14 0 -56 6 -95 14 -38 8 -99 15 -135 16 -139 3 -210 0 -210 -10 0 -5 8 -10
19 -10 20 0 129 -80 178 -131 37 -39 108 -185 153 -315 28 -80 30 -96 21 -131
-13 -48 -35 -60 -128 -69 -73 -7 -96 -15 -130 -47 -38 -34 -30 -67 25 -104 64
-42 102 -49 133 -24 13 10 21 23 17 27 -4 4 -14 1 -23 -6 -24 -20 -93 -6 -126
26 -38 36 -37 59 4 85 45 29 179 22 297 -16 47 -15 87 -29 88 -30 2 -2 -13
-38 -33 -80 -111 -234 -185 -550 -185 -791 l0 -124 410 0 c226 0 410 4 410 8
0 4 -12 15 -27 25 -52 32 -66 46 -68 71 -4 31 -13 46 -28 46 -7 1 -23 10 -36
21 -21 17 -23 22 -10 30 10 8 7 8 -11 3 -14 -4 -30 -7 -37 -7 -7 0 -10 -4 -7
-9 9 -14 -71 -9 -92 7 -12 8 -48 18 -80 24 -73 12 -172 48 -290 107 l-92 46
20 91 c30 138 95 341 138 435 42 89 51 95 118 71 34 -12 125 2 173 26 59 31
103 134 104 244 0 74 0 75 34 95 45 26 167 54 267 62 96 8 193 -7 271 -41 31
-14 67 -27 81 -30 79 -14 190 -128 261 -266 29 -57 59 -108 67 -112 21 -12 17
-21 -15 -34 -74 -28 -119 -185 -70 -247 12 -15 36 -34 52 -41 l29 -12 -33 -20
c-91 -55 -104 -58 -183 -38 -40 10 -80 16 -88 13 -8 -3 -20 -23 -26 -44 -22
-69 -48 -90 -146 -118 -63 -19 -112 -26 -172 -26 -45 0 -86 -4 -89 -10 -4 -6
6 -10 22 -10 15 0 48 -7 73 -16 31 -11 72 -15 135 -13 l90 3 65 -44 c121 -82
217 -202 204 -254 -5 -21 -3 -25 10 -20 9 3 16 1 16 -5 0 -6 9 -11 20 -11 27
0 25 22 -6 80 l-26 48 43 39 c49 44 99 144 99 198 0 64 -26 109 -78 134 l-47
23 40 21 c44 22 103 64 123 87 35 41 72 107 72 129 0 15 -20 62 -44 106 -24
44 -68 126 -98 183 -64 118 -111 178 -172 222 -40 29 -44 36 -49 87 -9 87 -62
186 -157 292 -77 86 -90 96 -186 142 -56 27 -137 58 -180 69 -79 20 -174 27
-174 12z m120 -24 c16 -5 8 -6 -25 -2 -27 3 -54 10 -60 15 -10 10 39 3 85 -13z
m-757 -192 c56 -41 122 -94 146 -118 102 -101 194 -285 195 -389 1 -61 -26
-125 -56 -135 -9 -3 -54 6 -98 20 -44 14 -98 29 -120 32 l-40 7 28 26 c15 15
30 26 33 24 9 -4 19 23 19 48 0 52 -122 351 -171 419 -16 21 -61 62 -100 90
l-72 50 67 0 68 0 101 -74z m-13 60 c0 -11 -19 -15 -25 -6 -3 5 1 10 9 10 9 0
16 -2 16 -4z m432 -183 c30 -36 30 -47 0 -19 -18 17 -32 31 -32 33 0 9 19 1
32 -14z m-191 -40 c13 -16 12 -17 -3 -4 -10 7 -18 15 -18 17 0 8 8 3 21 -13z
m1076 -105 c-3 -8 -6 -5 -6 6 -1 11 2 17 5 13 3 -3 4 -12 1 -19z m13 -33 c0
-8 -4 -15 -10 -15 -5 0 -10 7 -10 15 0 8 5 15 10 15 6 0 10 -7 10 -15z m329
-519 c17 -41 31 -78 31 -83 0 -4 -16 -31 -36 -60 -42 -61 -60 -65 -106 -24
-29 26 -33 35 -32 79 1 27 9 62 17 78 19 37 65 84 82 84 7 0 27 -33 44 -74z
m-99 -471 c0 -51 -95 -195 -128 -195 -4 0 -24 16 -43 36 -30 31 -32 36 -18 45
9 5 36 25 59 44 30 25 46 33 55 25 6 -5 16 -6 20 -2 5 4 5 2 2 -5 -4 -6 -17
-9 -30 -6 -18 4 -19 3 -7 -6 11 -8 12 -11 2 -11 -7 0 -10 -4 -7 -10 3 -5 2
-10 -3 -10 -14 0 -21 -35 -11 -51 6 -11 12 -9 28 5 11 10 18 23 15 27 -3 5 2
12 10 15 9 3 16 10 16 16 0 5 -6 6 -12 2 -9 -6 -9 -3 0 9 16 19 7 61 -11 51
-7 -4 -2 4 11 18 12 13 22 30 22 37 0 11 3 11 15 1 8 -7 15 -23 15 -35z
m-1504 -175 l-15 -105 4 105 c3 58 8 116 12 130 l8 25 3 -25 c1 -14 -4 -72
-12 -130z m69 -139 c24 -5 31 -9 17 -10 -13 -1 -37 -8 -53 -17 -35 -18 -35
-18 -44 19 -7 26 -5 28 16 22 13 -3 42 -9 64 -14z"/>
<path d="M1685 996 c-86 -23 -147 -52 -90 -41 17 3 36 1 44 -4 16 -11 3 -20
-33 -23 -51 -4 -22 -85 39 -108 46 -17 117 9 145 55 23 37 26 101 6 128 -16
21 -12 21 -111 -7z"/>
<path d="M1162 887 c-97 -21 -137 -41 -82 -42 32 0 38 -18 8 -25 -33 -8 -33
-32 2 -65 27 -26 38 -29 89 -30 48 0 64 4 84 23 48 45 64 155 22 159 -11 0
-66 -9 -123 -20z"/>
<path d="M769 755 c-32 -17 -59 -71 -59 -116 0 -27 12 -44 68 -101 l69 -68 62
0 c79 0 124 21 146 67 34 71 -11 149 -117 202 -67 34 -126 40 -169 16z m184
-57 c96 -64 111 -153 31 -191 -71 -34 -109 -22 -196 62 -58 55 -63 91 -21 141
25 30 30 32 79 28 39 -3 67 -14 107 -40z"/>
<path d="M1550 720 c0 -5 9 -10 20 -10 11 0 20 5 20 10 0 6 -9 10 -20 10 -11
0 -20 -4 -20 -10z"/>
<path d="M1455 536 c-16 -13 -27 -27 -23 -31 8 -8 23 -3 55 21 22 16 23 15 33
-12 9 -22 13 -25 20 -14 12 19 -10 54 -36 58 -11 1 -32 -9 -49 -22z"/>
<path d="M1055 163 c11 -3 27 -10 35 -17 13 -10 13 -9 1 7 -7 9 -23 16 -35 16
-20 -1 -20 -2 -1 -6z"/>
<path d="M1322 23 c2 -11 14 -19 33 -21 30 -4 30 -4 11 17 -23 26 -49 28 -44
4z"/>
</g>
</svg>
